<?xml version="1.0" encoding="UTF-8" standalone="no"?>
<svg
   xmlns:dc="http://purl.org/dc/elements/1.1/"
   xmlns:cc="http://creativecommons.org/ns#"
   xmlns:rdf="http://www.w3.org/1999/02/22-rdf-syntax-ns#"
   xmlns:svg="http://www.w3.org/2000/svg"
   xmlns="http://www.w3.org/2000/svg"
   version="1.1"
   id="svg4182"
   viewBox="0 0 281.81486 280.45868"
   height="79.151672mm"
   width="79.534416mm">
  <defs
     id="defs4184" />
  <metadata
     id="metadata4187">
    <rdf:RDF>
      <cc:Work
         rdf:about="">
        <dc:format>image/svg+xml</dc:format>
        <dc:type
           rdf:resource="http://purl.org/dc/dcmitype/StillImage" />
        <dc:title></dc:title>
      </cc:Work>
    </rdf:RDF>
  </metadata>
  <g
     transform="translate(-234.09257,-392.13287)"
     id="layer1">
    <path
       style="fill:#e1e04e"
       d="m 342.31289,670.23177 c -30.64126,-6.4818 -49.49742,-17.08839 -71.41771,-40.42289 -23.3345,-24.74871 -35.23745,-51.38304 -36.65166,-82.0243 -1.29636,-27.81284 5.65685,-43.25132 24.74871,-55.74353 10.37089,-6.7175 16.61699,-8.36742 29.46275,-7.89601 9.42808,0.35355 11.90295,0.9428 18.85617,4.36048 17.91335,8.83883 32.88042,28.8735 39.24438,52.67941 2.12132,8.01386 2.00346,26.63432 -0.2357,41.12999 -2.47488,15.67419 -1.76777,36.29811 1.64991,45.72619 5.0676,14.14212 18.50262,29.93416 31.93763,37.59447 12.84576,7.30676 13.31716,6.95321 -8.13172,6.95321 -14.14212,-0.2357 -22.156,-0.82496 -29.46276,-2.35702 l 0,0 z"
       id="path3054" />
    <path
       style="fill:#dd7927"
       d="m 403.83112,660.56799 c -8.24957,-1.64992 -16.73484,-6.95321 -26.39862,-16.49914 -11.3137,-11.19585 -13.31716,-16.61699 -13.19931,-35.3553 0.11785,-10.25304 0.58925,-13.78857 3.06412,-20.27037 4.71404,-12.61006 10.13519,-20.62393 21.56674,-32.17333 12.13865,-12.13865 17.32409,-15.08492 40.54074,-22.86309 8.01387,-2.71057 17.5598,-6.36396 21.33103,-8.24957 22.74525,-11.43155 37.71232,-36.18026 37.71232,-62.10748 0,-12.25651 2.71058,-10.72444 11.078,6.12825 11.43154,23.21665 16.38129,43.01562 16.38129,65.99656 0,15.79204 -2.00347,26.87003 -7.66032,42.77992 -12.61006,35.8267 -34.29464,61.63607 -63.99309,76.36745 -14.61353,7.18891 -26.51648,9.07452 -40.4229,6.2461 z"
       id="path3052" />
    <path
       style="fill:#8e3089"
       d="m 396.05296,508.65805 c -15.43848,-2.47487 -25.33797,-7.54247 -46.55116,-24.15946 -20.38822,-15.90989 -28.87349,-19.44542 -47.1404,-20.27037 -15.32063,-0.70711 -23.45235,1.17851 -38.06587,8.72097 -5.7747,2.94628 -10.72445,5.06759 -11.078,4.71404 -1.17851,-1.17851 4.83189,-12.72791 13.19931,-25.33796 9.19238,-13.90642 25.69152,-31.23052 36.76952,-38.65513 13.67072,-9.19238 27.81284,-15.08493 47.6118,-19.68112 10.72446,-2.47487 52.20801,-2.47487 61.75394,0 34.53034,8.95668 58.21839,30.64126 60.33971,55.38997 0.94281,10.96014 -1.17851,24.39516 -5.18544,31.58407 -6.12826,11.3137 -21.21318,22.6274 -35.1196,26.39863 -7.89602,1.76776 -27.69499,2.59272 -36.53381,1.29636 z"
       id="path3020" />
  </g>
</svg>
